<?xml version="1.0" encoding="UTF-8" standalone="no"?>
<!-- Created with Inkscape (http://www.inkscape.org/) -->

<svg
   xmlns:sketch="http://www.bohemiancoding.com/sketch/ns"
   xmlns:dc="http://purl.org/dc/elements/1.1/"
   xmlns:cc="http://creativecommons.org/ns#"
   xmlns:rdf="http://www.w3.org/1999/02/22-rdf-syntax-ns#"
   xmlns:svg="http://www.w3.org/2000/svg"
   xmlns="http://www.w3.org/2000/svg"
   xmlns:sodipodi="http://sodipodi.sourceforge.net/DTD/sodipodi-0.dtd"
   xmlns:inkscape="http://www.inkscape.org/namespaces/inkscape"
   width="99.098694mm"
   height="40.312019mm"
   viewBox="0 0 99.098694 40.31202"
   version="1.1"
   id="svg8"
   inkscape:version="0.92.4 (unknown)"
   sodipodi:docname="software_logos.svg">
  <defs
     id="defs2">
    <clipPath
       id="clipPath850"
       clipPathUnits="userSpaceOnUse">
      <path
         inkscape:connector-curvature="0"
         id="path848"
         d="M 0,600 H 600 V 0 H 0 Z" />
    </clipPath>
    <clipPath
       id="clipPath886"
       clipPathUnits="userSpaceOnUse">
      <path
         inkscape:connector-curvature="0"
         id="path884"
         d="m 239.032,373.393 -42.134,-24.315 c -1.576,-0.909 -2.545,-2.588 -2.545,-4.407 v 0 -48.666 c 0,-1.818 0.969,-3.497 2.544,-4.408 v 0 l 42.133,-24.334 c 1.576,-0.909 3.516,-0.909 5.091,0 v 0 l 42.124,24.334 c 1.574,0.911 2.543,2.59 2.543,4.408 v 0 48.668 c 0,1.817 -0.969,3.496 -2.545,4.405 v 0 l -42.123,24.315 c -0.787,0.454 -1.666,0.682 -2.544,0.682 v 0 c -0.879,0 -1.757,-0.228 -2.544,-0.682" />
    </clipPath>
    <linearGradient
       id="linearGradient898"
       spreadMethod="pad"
       gradientTransform="matrix(-38.064877,-77.652351,-77.652351,38.064877,258.70169,355.28543)"
       gradientUnits="userSpaceOnUse"
       y2="0"
       x2="1"
       y1="0"
       x1="0">
      <stop
         id="stop892"
         offset="0"
         style="stop-opacity:1;stop-color:#687e67" />
      <stop
         id="stop894"
         offset="0.5288042"
         style="stop-opacity:1;stop-color:#687e67" />
      <stop
         id="stop896"
         offset="1"
         style="stop-opacity:1;stop-color:#83a178" />
    </linearGradient>
    <clipPath
       id="clipPath908"
       clipPathUnits="userSpaceOnUse">
      <path
         inkscape:connector-curvature="0"
         id="path906"
         d="m 195.4,292.914 c 0.401,-0.525 0.906,-0.975 1.497,-1.317 v 0 l 36.143,-20.874 6.017,-3.46 c 0.9,-0.519 1.927,-0.739 2.936,-0.665 v 0 c 0.337,0.028 0.673,0.09 1.001,0.185 v 0 l 44.43,81.357 c -0.34,0.365 -0.736,0.682 -1.181,0.938 v 0 l -27.588,15.925 -14.579,8.39 c -0.417,0.24 -0.864,0.413 -1.323,0.526 v 0 z" />
    </clipPath>
    <linearGradient
       id="linearGradient924"
       spreadMethod="pad"
       gradientTransform="matrix(106.80725,78.914902,78.914902,-106.80725,235.15767,314.64658)"
       gradientUnits="userSpaceOnUse"
       y2="0"
       x2="1"
       y1="0"
       x1="0">
      <stop
         id="stop914"
         offset="0"
         style="stop-opacity:1;stop-color:#687e67" />
      <stop
         id="stop916"
         offset="0.137556"
         style="stop-opacity:1;stop-color:#687e67" />
      <stop
         id="stop918"
         offset="0.69737407"
         style="stop-opacity:1;stop-color:#9bb48f" />
      <stop
         id="stop920"
         offset="0.908084"
         style="stop-opacity:1;stop-color:#9bb48f" />
      <stop
         id="stop922"
         offset="1"
         style="stop-opacity:1;stop-color:#9bb48f" />
    </linearGradient>
    <clipPath
       id="clipPath934"
       clipPathUnits="userSpaceOnUse">
      <path
         inkscape:connector-curvature="0"
         id="path932"
         d="m 239.032,373.393 -42.134,-24.315 c -1.575,-0.909 -2.545,-2.588 -2.545,-4.407 v -48.666 c 0,-1.818 0.97,-3.497 2.544,-4.408 l 42.133,-24.334 c 1.576,-0.909 3.516,-0.909 5.091,0 l 42.124,24.334 c 1.574,0.911 2.543,2.59 2.543,4.408 v 48.668 c 0,1.817 -0.969,3.496 -2.545,4.405 l -42.123,24.315 c -0.787,0.454 -1.666,0.682 -2.544,0.682 -0.879,0 -1.757,-0.228 -2.544,-0.682" />
    </clipPath>
    <clipPath
       id="clipPath942"
       clipPathUnits="userSpaceOnUse">
      <path
         inkscape:connector-curvature="0"
         id="path940"
         d="M 237.627,382.331 237.047,382 h 0.774 z" />
    </clipPath>
    <linearGradient
       id="linearGradient958"
       spreadMethod="pad"
       gradientTransform="matrix(97.416992,0,0,-97.416992,192.8623,382.16568)"
       gradientUnits="userSpaceOnUse"
       y2="0"
       x2="1"
       y1="0"
       x1="0">
      <stop
         id="stop948"
         offset="0"
         style="stop-opacity:1;stop-color:#9bb48f" />
      <stop
         id="stop950"
         offset="0.0919165"
         style="stop-opacity:1;stop-color:#9bb48f" />
      <stop
         id="stop952"
         offset="0.30262629"
         style="stop-opacity:1;stop-color:#9bb48f" />
      <stop
         id="stop954"
         offset="0.862444"
         style="stop-opacity:1;stop-color:#687e67" />
      <stop
         id="stop956"
         offset="1"
         style="stop-opacity:1;stop-color:#687e67" />
    </linearGradient>
    <clipPath
       id="clipPath968"
       clipPathUnits="userSpaceOnUse">
      <path
         inkscape:connector-curvature="0"
         id="path966"
         d="m 241.065,374.048 c -0.705,-0.07 -1.398,-0.289 -2.033,-0.655 v 0 l -42.014,-24.245 45.293,-82.513 c 0.628,0.091 1.243,0.301 1.81,0.628 v 0 l 42.124,24.334 c 1.301,0.753 2.189,2.031 2.458,3.477 v 0 l -46.178,78.89 c -0.341,0.068 -0.688,0.102 -1.035,0.102 v 0 c -0.142,0 -0.284,-0.006 -0.425,-0.018" />
    </clipPath>
    <linearGradient
       id="linearGradient984"
       spreadMethod="pad"
       gradientTransform="matrix(97.416992,0,0,-97.416992,192.8623,320.34848)"
       gradientUnits="userSpaceOnUse"
       y2="0"
       x2="1"
       y1="0"
       x1="0">
      <stop
         id="stop974"
         offset="0"
         style="stop-opacity:1;stop-color:#9bb48f" />
      <stop
         id="stop976"
         offset="0.0919165"
         style="stop-opacity:1;stop-color:#9bb48f" />
      <stop
         id="stop978"
         offset="0.30262629"
         style="stop-opacity:1;stop-color:#9bb48f" />
      <stop
         id="stop980"
         offset="0.862444"
         style="stop-opacity:1;stop-color:#687e67" />
      <stop
         id="stop982"
         offset="1"
         style="stop-opacity:1;stop-color:#687e67" />
    </linearGradient>
    <clipPath
       id="clipPath994"
       clipPathUnits="userSpaceOnUse">
      <path
         inkscape:connector-curvature="0"
         id="path992"
         d="m 239.032,373.393 -42.134,-24.315 c -1.575,-0.909 -2.545,-2.588 -2.545,-4.407 v -48.666 c 0,-1.818 0.97,-3.497 2.544,-4.408 l 42.133,-24.334 c 1.576,-0.909 3.516,-0.909 5.091,0 l 42.124,24.334 c 1.574,0.911 2.543,2.59 2.543,4.408 v 48.668 c 0,1.817 -0.969,3.496 -2.545,4.405 l -42.123,24.315 c -0.787,0.454 -1.666,0.682 -2.544,0.682 -0.879,0 -1.757,-0.228 -2.544,-0.682" />
    </clipPath>
    <clipPath
       id="clipPath1002"
       clipPathUnits="userSpaceOnUse">
      <path
         inkscape:connector-curvature="0"
         id="path1000"
         d="M 290.279,292.38 290,292.857 v -0.639 z" />
    </clipPath>
    <linearGradient
       id="linearGradient1018"
       spreadMethod="pad"
       gradientTransform="matrix(97.416992,0,0,-97.416992,192.8623,292.53787)"
       gradientUnits="userSpaceOnUse"
       y2="0"
       x2="1"
       y1="0"
       x1="0">
      <stop
         id="stop1008"
         offset="0"
         style="stop-opacity:1;stop-color:#9bb48f" />
      <stop
         id="stop1010"
         offset="0.0919165"
         style="stop-opacity:1;stop-color:#9bb48f" />
      <stop
         id="stop1012"
         offset="0.30262629"
         style="stop-opacity:1;stop-color:#9bb48f" />
      <stop
         id="stop1014"
         offset="0.862444"
         style="stop-opacity:1;stop-color:#687e67" />
      <stop
         id="stop1016"
         offset="1"
         style="stop-opacity:1;stop-color:#687e67" />
    </linearGradient>
    <clipPath
       id="clipPath1028"
       clipPathUnits="userSpaceOnUse">
      <path
         inkscape:connector-curvature="0"
         id="path1026"
         d="m 239.032,373.393 -42.134,-24.315 c -1.575,-0.909 -2.545,-2.588 -2.545,-4.407 v -48.666 c 0,-1.818 0.97,-3.497 2.544,-4.408 l 42.133,-24.334 c 1.576,-0.909 3.516,-0.909 5.091,0 l 42.124,24.334 c 1.574,0.911 2.543,2.59 2.543,4.408 v 48.668 c 0,1.817 -0.969,3.496 -2.545,4.405 l -42.123,24.315 c -0.787,0.454 -1.666,0.682 -2.544,0.682 -0.879,0 -1.757,-0.228 -2.544,-0.682" />
    </clipPath>
    <clipPath
       id="clipPath1036"
       clipPathUnits="userSpaceOnUse">
      <path
         inkscape:connector-curvature="0"
         id="path1034"
         d="m 286.351,291.597 -42.177,-24.333 c -0.58,-0.335 -1.213,-0.545 -1.861,-0.633 l 0.84,-1.53 46.847,27.117 v 0.639 l -1.158,1.979 c -0.347,-1.348 -1.263,-2.528 -2.491,-3.239" />
    </clipPath>
    <linearGradient
       id="linearGradient1052"
       spreadMethod="pad"
       gradientTransform="matrix(97.416992,0,0,-97.416992,192.8623,279.9682)"
       gradientUnits="userSpaceOnUse"
       y2="0"
       x2="1"
       y1="0"
       x1="0">
      <stop
         id="stop1042"
         offset="0"
         style="stop-opacity:1;stop-color:#9bb48f" />
      <stop
         id="stop1044"
         offset="0.0919165"
         style="stop-opacity:1;stop-color:#9bb48f" />
      <stop
         id="stop1046"
         offset="0.30262629"
         style="stop-opacity:1;stop-color:#9bb48f" />
      <stop
         id="stop1048"
         offset="0.862444"
         style="stop-opacity:1;stop-color:#687e67" />
      <stop
         id="stop1050"
         offset="1"
         style="stop-opacity:1;stop-color:#687e67" />
    </linearGradient>
    <clipPath
       id="clipPath1062"
       clipPathUnits="userSpaceOnUse">
      <path
         inkscape:connector-curvature="0"
         id="path1060"
         d="m 239.032,373.393 -42.134,-24.315 c -1.575,-0.909 -2.545,-2.588 -2.545,-4.407 v -48.666 c 0,-1.818 0.97,-3.497 2.544,-4.408 l 42.133,-24.334 c 1.576,-0.909 3.516,-0.909 5.091,0 l 42.124,24.334 c 1.574,0.911 2.543,2.59 2.543,4.408 v 48.668 c 0,1.817 -0.969,3.496 -2.545,4.405 l -42.123,24.315 c -0.787,0.454 -1.666,0.682 -2.544,0.682 -0.879,0 -1.757,-0.228 -2.544,-0.682" />
    </clipPath>
    <clipPath
       id="clipPath1070"
       clipPathUnits="userSpaceOnUse">
      <path
         inkscape:connector-curvature="0"
         id="path1068"
         d="m 286.351,291.597 -42.177,-24.333 c -0.58,-0.335 -1.213,-0.545 -1.861,-0.633 l 0.84,-1.53 46.847,27.117 v 0.639 l -1.158,1.979 c -0.347,-1.348 -1.263,-2.528 -2.491,-3.239" />
    </clipPath>
    <linearGradient
       id="linearGradient1082"
       spreadMethod="pad"
       gradientTransform="matrix(-60.080605,-122.56444,-122.56444,60.080605,304.47177,357.58765)"
       gradientUnits="userSpaceOnUse"
       y2="0"
       x2="1"
       y1="0"
       x1="0">
      <stop
         id="stop1076"
         offset="0"
         style="stop-opacity:1;stop-color:#687e67" />
      <stop
         id="stop1078"
         offset="0.5288042"
         style="stop-opacity:1;stop-color:#687e67" />
      <stop
         id="stop1080"
         offset="1"
         style="stop-opacity:1;stop-color:#83a178" />
    </linearGradient>
  </defs>
  <sodipodi:namedview
     id="base"
     pagecolor="#ffffff"
     bordercolor="#666666"
     borderopacity="1.0"
     inkscape:pageopacity="0.0"
     inkscape:pageshadow="2"
     inkscape:zoom="1.979899"
     inkscape:cx="233.52933"
     inkscape:cy="107.65651"
     inkscape:document-units="mm"
     inkscape:current-layer="layer1"
     showgrid="false"
     inkscape:pagecheckerboard="true"
     inkscape:showpageshadow="false"
     inkscape:window-width="1916"
     inkscape:window-height="1040"
     inkscape:window-x="0"
     inkscape:window-y="18"
     inkscape:window-maximized="0"
     fit-margin-top="0"
     fit-margin-left="0"
     fit-margin-right="0"
     fit-margin-bottom="0" />
  <metadata
     id="metadata5">
    <rdf:RDF>
      <cc:Work
         rdf:about="">
        <dc:format>image/svg+xml</dc:format>
        <dc:type
           rdf:resource="http://purl.org/dc/dcmitype/StillImage" />
        <dc:title></dc:title>
      </cc:Work>
    </rdf:RDF>
  </metadata>
  <g
     inkscape:label="Layer 1"
     inkscape:groupmode="layer"
     id="layer1"
     transform="translate(-60.262017,-72.736453)">
    <g
       transform="matrix(0.07097862,0,0,-0.07097862,54.703979,124.76389)"
       inkscape:label="nodejs-new-pantone-black"
       id="g842">
      <g
         id="g844">
        <g
           clip-path="url(#clipPath850)"
           id="g846">
          <g
             transform="translate(296.9532,165.0556)"
             id="g852">
            <path
               inkscape:connector-curvature="0"
               id="path854"
               style="fill:#689f63;fill-opacity:1;fill-rule:nonzero;stroke:none"
               d="m 0,0 c -1.46,0 -2.912,0.381 -4.19,1.121 l -13.338,7.892 c -1.991,1.114 -1.019,1.509 -0.362,1.738 2.657,0.922 3.195,1.135 6.031,2.743 0.295,0.167 0.687,0.103 0.992,-0.076 L -0.62,7.335 c 0.371,-0.206 0.895,-0.206 1.237,0 l 39.95,23.058 c 0.372,0.212 0.61,0.64 0.61,1.081 v 46.104 c 0,0.451 -0.238,0.872 -0.62,1.101 L 0.624,101.717 c -0.369,0.216 -0.859,0.216 -1.231,0 L -40.53,78.672 c -0.388,-0.222 -0.634,-0.657 -0.634,-1.094 V 31.474 c 0,-0.441 0.246,-0.859 0.63,-1.068 l 10.944,-6.323 c 5.938,-2.969 9.574,0.528 9.574,4.041 v 45.519 c 0,0.644 0.517,1.151 1.161,1.151 h 5.065 c 0.634,0 1.158,-0.507 1.158,-1.151 V 28.124 c 0,-7.925 -4.316,-12.47 -11.829,-12.47 -2.309,0 -4.127,0 -9.202,2.501 l -10.476,6.031 c -2.588,1.496 -4.19,4.293 -4.19,7.288 v 46.104 c 0,2.995 1.602,5.792 4.19,7.281 l 39.949,23.085 c 2.528,1.429 5.888,1.429 8.396,0 L 44.153,84.859 c 2.587,-1.496 4.196,-4.286 4.196,-7.281 V 31.474 c 0,-2.995 -1.609,-5.782 -4.196,-7.288 L 4.206,1.121 C 2.929,0.381 1.48,0 0,0" />
          </g>
          <g
             transform="translate(309.2934,196.8184)"
             id="g856">
            <path
               inkscape:connector-curvature="0"
               id="path858"
               style="fill:#689f63;fill-opacity:1;fill-rule:nonzero;stroke:none"
               d="m 0,0 c -17.482,0 -21.144,8.024 -21.144,14.755 0,0.64 0.514,1.151 1.154,1.151 h 5.165 c 0.577,0 1.058,-0.415 1.148,-0.978 0.78,-5.258 3.105,-7.912 13.677,-7.912 8.416,0 11.999,1.904 11.999,6.369 0,2.574 -1.016,4.485 -14.095,5.766 -10.931,1.081 -17.692,3.496 -17.692,12.24 0,8.061 6.794,12.868 18.186,12.868 12.798,0 19.131,-4.442 19.933,-13.972 0.03,-0.329 -0.086,-0.644 -0.305,-0.889 -0.219,-0.229 -0.524,-0.369 -0.846,-0.369 h -5.185 c -0.537,0 -1.012,0.382 -1.121,0.903 -1.244,5.533 -4.269,7.301 -12.476,7.301 -9.189,0 -10.257,-3.201 -10.257,-5.6 0,-2.906 1.26,-3.751 13.667,-5.393 C 14.085,24.617 19.917,22.319 19.917,13.69 19.917,4.986 12.659,0 0,0" />
          </g>
          <g
             transform="translate(357.9388,245.6999)"
             id="g860">
            <path
               inkscape:connector-curvature="0"
               id="path862"
               style="fill:#689f63;fill-opacity:1;fill-rule:nonzero;stroke:none"
               d="m 0,0 h 1.343 c 1.098,0 1.304,0.773 1.304,1.221 0,1.183 -0.816,1.183 -1.264,1.183 H 0 Z m -1.632,3.789 h 2.975 c 1.019,0 3.016,0 3.016,-2.283 0,-1.589 -1.019,-1.914 -1.632,-2.118 1.184,-0.081 1.264,-0.856 1.426,-1.955 0.083,-0.692 0.206,-1.875 0.448,-2.281 H 2.77 C 2.727,-4.442 2.441,-2.241 2.441,-2.12 2.322,-1.63 2.156,-1.387 1.546,-1.387 H 0.04 v -3.461 h -1.672 z m -3.563,-4.298 c 0,-3.586 2.893,-6.479 6.436,-6.479 3.586,0 6.478,2.954 6.478,6.479 0,3.584 -2.932,6.436 -6.478,6.436 -3.503,0 -6.436,-2.81 -6.436,-6.436 M 8.96,-0.531 c 0,-4.236 -3.464,-7.699 -7.699,-7.699 -4.197,0 -7.7,3.422 -7.7,7.699 0,4.359 3.586,7.701 7.7,7.701 4.156,0 7.699,-3.342 7.699,-7.701" />
          </g>
          <g
             transform="translate(173.2428,345.4329)"
             id="g864">
            <path
               inkscape:connector-curvature="0"
               id="path866"
               style="fill:#333333;fill-opacity:1;fill-rule:evenodd;stroke:none"
               d="M 0,0 C 0,1.841 -0.969,3.533 -2.558,4.445 L -44.913,28.82 c -0.716,0.422 -1.519,0.641 -2.331,0.674 h -0.438 c -0.81,-0.033 -1.612,-0.252 -2.339,-0.674 L -92.376,4.445 C -93.955,3.533 -94.937,1.841 -94.937,0 l 0.093,-65.635 c 0,-0.913 0.474,-1.762 1.277,-2.21 0.786,-0.471 1.758,-0.471 2.541,0 l 25.172,14.414 c 1.592,0.945 2.561,2.614 2.561,4.439 v 30.664 c 0,1.828 0.968,3.52 2.554,4.429 l 10.718,6.173 c 0.799,0.461 1.672,0.687 2.564,0.687 0.873,0 1.768,-0.226 2.544,-0.687 l 10.715,-6.173 c 1.586,-0.909 2.558,-2.601 2.558,-4.429 v -30.664 c 0,-1.825 0.982,-3.504 2.564,-4.439 l 25.165,-14.414 c 0.789,-0.471 1.775,-0.471 2.557,0 0.78,0.448 1.271,1.297 1.271,2.21 z" />
          </g>
          <g
             transform="translate(373.1093,311.2569)"
             id="g868">
            <path
               inkscape:connector-curvature="0"
               id="path870"
               style="fill:#333333;fill-opacity:1;fill-rule:evenodd;stroke:none"
               d="m 0,0 c 0,-0.456 -0.244,-0.879 -0.64,-1.106 l -14.548,-8.386 c -0.395,-0.227 -0.882,-0.227 -1.277,0 l -14.548,8.386 c -0.397,0.227 -0.64,0.65 -0.64,1.106 v 16.799 c 0,0.456 0.243,0.879 0.639,1.108 l 14.547,8.402 c 0.397,0.229 0.884,0.229 1.281,0 L -0.639,17.907 C -0.244,17.678 0,17.255 0,16.799 Z m 3.931,124.403 c -0.793,0.44 -1.76,0.431 -2.543,-0.029 -0.781,-0.459 -1.262,-1.299 -1.262,-2.206 v -65 c 0,-0.639 -0.342,-1.231 -0.894,-1.551 -0.554,-0.32 -1.237,-0.32 -1.791,0 l -10.609,6.112 c -1.582,0.913 -3.529,0.911 -5.112,-10e-4 L -60.651,37.275 c -1.584,-0.914 -2.559,-2.603 -2.559,-4.431 v -48.916 c 0,-1.828 0.975,-3.516 2.557,-4.432 l 42.37,-24.471 c 1.584,-0.914 3.534,-0.914 5.118,0 l 42.377,24.471 c 1.582,0.916 2.558,2.604 2.558,4.432 v 121.936 c 0,1.854 -1.004,3.564 -2.624,4.468 z" />
          </g>
          <g
             transform="translate(518.131,328.495)"
             id="g872">
            <path
               inkscape:connector-curvature="0"
               id="path874"
               style="fill:#333333;fill-opacity:1;fill-rule:evenodd;stroke:none"
               d="m 0,0 c 1.576,0.915 2.546,2.601 2.546,4.424 v 11.854 c 0,1.823 -0.97,3.51 -2.548,4.425 l -42.099,24.443 c -1.584,0.921 -3.539,0.922 -5.127,0.007 L -89.584,20.7 c -1.583,-0.914 -2.558,-2.602 -2.558,-4.43 v -48.903 c 0,-1.84 0.987,-3.537 2.584,-4.446 l 42.093,-23.985 c 1.552,-0.886 3.455,-0.896 5.017,-0.028 l 25.46,14.151 c 0.808,0.45 1.311,1.297 1.316,2.219 0.006,0.923 -0.485,1.777 -1.284,2.236 l -42.625,24.465 c -0.796,0.456 -1.286,1.304 -1.286,2.219 v 15.326 c 0,0.914 0.488,1.76 1.281,2.216 l 13.266,7.648 c 0.789,0.456 1.764,0.456 2.554,0 L -30.494,1.74 c 0.793,-0.456 1.28,-1.302 1.28,-2.216 v -12.058 c 0,-0.916 0.49,-1.762 1.283,-2.218 0.793,-0.458 1.77,-0.454 2.561,0.005 z" />
          </g>
          <g
             transform="translate(472.8422,330.7856)"
             id="g876">
            <path
               inkscape:connector-curvature="0"
               id="path878"
               style="fill:#689f63;fill-opacity:1;fill-rule:evenodd;stroke:none"
               d="m 0,0 c 0.304,0.176 0.678,0.176 0.982,0 l 8.13,-4.69 c 0.304,-0.176 0.491,-0.5 0.491,-0.851 v -9.388 c 0,-0.352 -0.187,-0.675 -0.491,-0.851 l -8.13,-4.691 c -0.304,-0.176 -0.678,-0.176 -0.982,0 l -8.124,4.691 c -0.304,0.176 -0.491,0.499 -0.491,0.851 v 9.388 c 0,0.351 0.187,0.675 0.491,0.851 z" />
          </g>
        </g>
      </g>
      <g
         id="g880">
        <g
           clip-path="url(#clipPath886)"
           id="g882">
          <g
             id="g888">
            <g
               id="g890">
              <path
                 inkscape:connector-curvature="0"
                 id="path900"
                 style="fill:url(#linearGradient898);stroke:none"
                 d="m 239.032,373.393 -42.134,-24.315 c -1.576,-0.909 -2.545,-2.588 -2.545,-4.407 v 0 -48.666 c 0,-1.818 0.969,-3.497 2.544,-4.408 v 0 l 42.133,-24.334 c 1.576,-0.909 3.516,-0.909 5.091,0 v 0 l 42.124,24.334 c 1.574,0.911 2.543,2.59 2.543,4.408 v 0 48.668 c 0,1.817 -0.969,3.496 -2.545,4.405 v 0 l -42.123,24.315 c -0.787,0.454 -1.666,0.682 -2.544,0.682 v 0 c -0.879,0 -1.757,-0.228 -2.544,-0.682" />
            </g>
          </g>
        </g>
      </g>
      <g
         id="g902">
        <g
           clip-path="url(#clipPath908)"
           id="g904">
          <g
             id="g910">
            <g
               id="g912">
              <path
                 inkscape:connector-curvature="0"
                 id="path926"
                 style="fill:url(#linearGradient924);stroke:none"
                 d="m 195.4,292.914 c 0.401,-0.525 0.906,-0.975 1.497,-1.317 v 0 l 36.143,-20.874 6.017,-3.46 c 0.9,-0.519 1.927,-0.739 2.936,-0.665 v 0 c 0.337,0.028 0.673,0.09 1.001,0.185 v 0 l 44.43,81.357 c -0.34,0.365 -0.736,0.682 -1.181,0.938 v 0 l -27.588,15.925 -14.579,8.39 c -0.417,0.24 -0.864,0.413 -1.323,0.526 v 0 z" />
            </g>
          </g>
        </g>
      </g>
      <g
         id="g928">
        <g
           clip-path="url(#clipPath934)"
           id="g930">
          <g
             id="g936">
            <g
               clip-path="url(#clipPath942)"
               id="g938">
              <g
                 id="g944">
                <g
                   id="g946">
                  <path
                     inkscape:connector-curvature="0"
                     id="path960"
                     style="fill:url(#linearGradient958);stroke:none"
                     d="M 237.627,382.331 237.047,382 h 0.774 z" />
                </g>
              </g>
            </g>
          </g>
        </g>
      </g>
      <g
         id="g962">
        <g
           clip-path="url(#clipPath968)"
           id="g964">
          <g
             id="g970">
            <g
               id="g972">
              <path
                 inkscape:connector-curvature="0"
                 id="path986"
                 style="fill:url(#linearGradient984);stroke:none"
                 d="m 241.065,374.048 c -0.705,-0.07 -1.398,-0.289 -2.033,-0.655 v 0 l -42.014,-24.245 45.293,-82.513 c 0.628,0.091 1.243,0.301 1.81,0.628 v 0 l 42.124,24.334 c 1.301,0.753 2.189,2.031 2.458,3.477 v 0 l -46.178,78.89 c -0.341,0.068 -0.688,0.102 -1.035,0.102 v 0 c -0.142,0 -0.284,-0.006 -0.425,-0.018" />
            </g>
          </g>
        </g>
      </g>
      <g
         id="g988">
        <g
           clip-path="url(#clipPath994)"
           id="g990">
          <g
             id="g996">
            <g
               clip-path="url(#clipPath1002)"
               id="g998">
              <g
                 id="g1004">
                <g
                   id="g1006">
                  <path
                     inkscape:connector-curvature="0"
                     id="path1020"
                     style="fill:url(#linearGradient1018);stroke:none"
                     d="M 290.279,292.38 290,292.857 v -0.639 z" />
                </g>
              </g>
            </g>
          </g>
        </g>
      </g>
      <g
         id="g1022">
        <g
           clip-path="url(#clipPath1028)"
           id="g1024">
          <g
             id="g1030">
            <g
               clip-path="url(#clipPath1036)"
               id="g1032">
              <g
                 id="g1038">
                <g
                   id="g1040">
                  <path
                     inkscape:connector-curvature="0"
                     id="path1054"
                     style="fill:url(#linearGradient1052);stroke:none"
                     d="m 286.351,291.597 -42.177,-24.333 c -0.58,-0.335 -1.213,-0.545 -1.861,-0.633 l 0.84,-1.53 46.847,27.117 v 0.639 l -1.158,1.979 c -0.347,-1.348 -1.263,-2.528 -2.491,-3.239" />
                </g>
              </g>
            </g>
          </g>
        </g>
      </g>
      <g
         id="g1056">
        <g
           clip-path="url(#clipPath1062)"
           id="g1058">
          <g
             id="g1064">
            <g
               clip-path="url(#clipPath1070)"
               id="g1066">
              <g
                 id="g1072">
                <g
                   id="g1074">
                  <path
                     inkscape:connector-curvature="0"
                     id="path1084"
                     style="fill:url(#linearGradient1082);stroke:none"
                     d="m 286.351,291.597 -42.177,-24.333 c -0.58,-0.335 -1.213,-0.545 -1.861,-0.633 l 0.84,-1.53 46.847,27.117 v 0.639 l -1.158,1.979 c -0.347,-1.348 -1.263,-2.528 -2.491,-3.239" />
                </g>
              </g>
            </g>
          </g>
        </g>
      </g>
    </g>
    <g
       sketch:type="MSPage"
       id="Page-1"
       transform="matrix(0.38885016,0,0,0.38885016,78.66971,98.767244)">
	<g
   sketch:type="MSArtboardGroup"
   transform="translate(-25,-23)"
   id="main">
		<g
   sketch:type="MSLayerGroup"
   transform="translate(25,23)"
   id="nav">
			<path
   d="M 92.3,-8 H 63.6 c -2,0 -3.6,1.6 -3.6,3.6 v 32.8 c 0,2 1.6,3.6 3.6,3.6 h 28.7 c 2,0 3.6,-1.6 3.6,-3.6 V -4.4 c 0,-2 -1.6,-3.6 -3.6,-3.6 z m 1.6,36.4 c 0,0.9 -0.7,1.6 -1.6,1.6 H 63.6 C 62.7,30 62,29.3 62,28.4 V -4.4 C 62,-5.3 62.7,-6 63.6,-6 h 28.7 c 0.9,0 1.6,0.7 1.6,1.6 z M 69,26 73.5,22 69,18 Z M 85.2,9.8 C 84.4,9 82.9,8 80.4,8 77.7,8 74.9,8.7 72.9,9.4 V -2 h -4 V 15.3 L 71.7,14 c 0,0 4.6,-2.1 8.6,-2.1 2,0 2.5,1.1 2.5,2.1 v 12 h 4 V 14 c 0.1,-0.3 0.1,-2.5 -1.6,-4.2 z M 79.9,4.5 h 4 c 1.8,-2.1 2.7,-4.2 3,-6.5 h -4 c -0.4,2.3 -1.4,4.4 -3,6.5 z m 110.5,9.4 V 5.1 h 4 v 8.8 c 0,2 0.7,3 2.3,3 1.6,0 2.2,-0.9 2.2,-3 V 5.1 h 3.9 V 14 c 0,3.9 -1.9,6.2 -6.2,6.2 -4.3,-0.1 -6.2,-2.4 -6.2,-6.3 z M 173.6,5.1 h 4 v 5.4 l 4.1,-5.4 h 4.6 l -5,5.8 5.4,9 h -4.5 l -3.5,-5.9 -1.1,1.3 v 4.6 h -4 z m -19,7.3 c 0,-5.4 3.7,-7.7 7.3,-7.7 3.6,0 7.3,2.3 7.3,7.7 0,5.4 -3.7,7.7 -7.3,7.7 -3.6,0 -7.3,-2.2 -7.3,-7.7 z m 10.5,0 c 0,-2.7 -1.2,-4.4 -3.3,-4.4 -2.1,0 -3.3,1.7 -3.3,4.4 0,2.7 1.2,4.5 3.3,4.5 2.1,0 3.3,-1.7 3.3,-4.5 z M 138.5,5.1 h 5.8 c 3.8,0 6.1,1.3 6.1,4.8 0,2.3 -1,3.7 -2.9,4.3 l 3.1,5.7 h -4.2 l -2.9,-5.1 h -1.1 v 5.1 h -3.9 z m 5.7,6.6 c 1.6,0 2.4,-0.5 2.4,-1.7 0,-1.2 -0.7,-1.7 -2.4,-1.7 h -1.7 v 3.4 z m -21,-6.6 h 10.6 v 3.3 h -6.6 v 2.4 h 4.7 v 3.1 h -4.7 v 2.7 h 6.9 v 3.2 h -10.9 z m -18.1,0 h 4 v 5.5 H 114 V 5.1 h 4 v 14.8 h -4 v -6 h -4.9 v 6 h -4 z"
   class="st0"
   sketch:type="MSShapeGroup"
   id="logo"
   inkscape:connector-curvature="0"
   style="fill:#430098" />

		</g>

	</g>

</g>
    <g
       id="g1321"
       transform="matrix(0.02572299,0,0,0.02572299,67.858723,73.140388)">
      <rect
         id="rect1307"
         height="630"
         width="630"
         x="0"
         y="0"
         style="fill:#f7df1e" />
      <path
         id="path1309"
         d="m 423.2,492.19 c 12.69,20.72 29.2,35.95 58.4,35.95 24.53,0 40.2,-12.26 40.2,-29.2 0,-20.3 -16.1,-27.49 -43.1,-39.3 l -14.8,-6.35 c -42.72,-18.2 -71.1,-41 -71.1,-89.2 0,-44.4 33.83,-78.2 86.7,-78.2 37.64,0 64.7,13.1 84.2,47.4 l -46.1,29.6 c -10.15,-18.2 -21.1,-25.37 -38.1,-25.37 -17.34,0 -28.33,11 -28.33,25.37 0,17.76 11,24.95 36.4,35.95 l 14.8,6.34 c 50.3,21.57 78.7,43.56 78.7,93 0,53.3 -41.87,82.5 -98.1,82.5 -54.98,0 -90.5,-26.2 -107.88,-60.54 z m -209.13,5.13 c 9.3,16.5 17.76,30.45 38.1,30.45 19.45,0 31.72,-7.61 31.72,-37.2 v -201.3 h 59.2 v 202.1 c 0,61.3 -35.94,89.2 -88.4,89.2 -47.4,0 -74.85,-24.53 -88.81,-54.075 z"
         inkscape:connector-curvature="0" />
    </g>
    <g
       id="g1345"
       transform="matrix(0.01942829,0,0,0.01942829,91.989227,66.208548)">
      <path
         id="path1325"
         d="m 808,336 387,218.9 V 992.8 L 808,1211.7 421,992.8 V 554.9 Z"
         inkscape:connector-curvature="0"
         style="fill:#ffffff" />
      <path
         id="path1327"
         d="m 1125.9,977.7 -305.1,172.6 v -134.4 l 190.1,-104.6 z m 20.9,-18.9 V 597.9 l -111.6,64.5 v 232 z M 488.9,977.7 794,1150.3 V 1015.9 L 603.8,911.3 Z M 468,958.8 V 597.9 l 111.6,64.5 v 232 z M 481.1,574.5 794,397.5 v 129.9 l -200.5,110.3 -1.6,0.9 z m 652.6,0 -312.9,-177 v 129.9 l 200.5,110.2 1.6,0.9 z"
         inkscape:connector-curvature="0"
         style="fill:#8ed6fb" />
      <path
         id="path1329"
         d="M 794,985.3 606.4,882.1 V 677.8 L 794,786.1 Z m 26.8,0 187.6,-103.1 V 677.8 L 820.8,786.1 Z m -13.4,-207 z M 619.1,654.2 807.4,550.7 995.7,654.2 807.4,762.9 Z"
         inkscape:connector-curvature="0"
         style="fill:#1c78c0" />
      <path
         id="path1331"
         d="m 1585.3,912.3 h 82.5 l 84.1,-280.2 h -80.4 l -49.8,198.8 -53.1,-198.8 H 1499 l -53.6,198.8 -49.3,-198.8 h -80.4 l 83.6,280.2 h 82.5 l 52,-179.5 z M 1756.2,773 c 0,84.1 57.3,146.3 147.4,146.3 69.7,0 107.2,-41.8 117.9,-61.6 l -48.8,-37 c -8,11.8 -30,34.3 -68.1,34.3 -41.3,0 -71.3,-26.8 -72.9,-64.3 H 2029 c 0.5,-5.4 0.5,-10.7 0.5,-16.1 0,-91.6 -49.3,-149.5 -136.1,-149.5 -79.9,0 -137.2,63.2 -137.2,147.9 z m 77.7,-30.6 c 3.2,-32.1 25.7,-56.8 60.6,-56.8 33.8,0 58.4,22.5 60,56.8 z m 223.5,169.9 h 69.7 v -28.9 c 7.5,9.1 35.4,35.9 83.1,35.9 80.4,0 137.2,-60.5 137.2,-146.8 0,-86.8 -52.5,-147.3 -132.9,-147.3 -48.2,0 -76.1,26.8 -83.1,36.4 V 524.9 h -73.9 V 912.3 Z M 2129.2,773 c 0,-52.5 31.1,-82.5 71.8,-82.5 42.9,0 71.8,33.8 71.8,82.5 0,49.8 -30,80.9 -71.8,80.9 -45,0 -71.8,-36.5 -71.8,-80.9 z m 247,239.5 h 73.9 V 883.3 c 7,9.1 34.8,35.9 83.1,35.9 80.4,0 132.9,-60.5 132.9,-147.3 0,-85.7 -56.8,-146.8 -137.2,-146.8 -47.7,0 -75.6,26.8 -83.1,36.4 V 632 h -69.7 v 380.5 z M 2448,771.4 c 0,-44.5 26.8,-80.9 71.8,-80.9 41.8,0 71.8,31.1 71.8,80.9 0,48.8 -28.9,82.5 -71.8,82.5 -40.7,0 -71.8,-30 -71.8,-82.5 z m 231.5,54.1 c 0,58.9 48.2,93.8 105,93.8 32.2,0 53.6,-9.6 68.1,-25.2 l 4.8,18.2 h 65.4 V 734.9 c 0,-62.7 -26.8,-109.8 -116.8,-109.8 -42.9,0 -85.2,16.1 -110.4,33.2 l 27.9,50.4 c 20.9,-10.7 46.6,-19.8 74.5,-19.8 32.7,0 50.9,16.6 50.9,41.3 v 18.2 c -10.2,-7 -32.2,-15.5 -60.6,-15.5 -65.4,-0.1 -108.8,37.4 -108.8,92.6 z m 73.9,-2.2 c 0,-23 19.8,-39.1 48.2,-39.1 28.4,0 48.8,14.5 48.8,39.1 0,23.6 -20.4,38.6 -48.2,38.6 -27.8,0 -48.8,-15.5 -48.8,-38.6 z m 348.9,30.6 c -46.6,0 -79.8,-33.8 -79.8,-81.4 0,-45 29.5,-82 77.2,-82 31.6,0 53.1,15.5 65.4,26.8 l 20.9,-62.2 c -18.2,-13.9 -47.2,-30 -88.4,-30 -85.2,0 -149,62.7 -149,147.9 0,85.2 62.2,146.3 149.5,146.3 40.7,0 71.3,-17.1 87.3,-30 l -19.8,-60.5 c -12.4,10.1 -34.9,25.1 -63.3,25.1 z m 110.9,58.4 h 73.9 V 767.6 l 93.8,144.7 h 86.8 L 3361.6,759 3460.2,632 h -83.1 l -90,117.9 v -225 h -73.9 z"
         inkscape:connector-curvature="0"
         style="fill:#1a1c1c" />
    </g>
  </g>
  <style
     id="style1289"
     type="text/css">
	.st0{fill:#430098;}
</style>
</svg>
